<svg xmlns="http://www.w3.org/2000/svg" viewBox="0 0 800 200" width="100%">
  <defs>
    <linearGradient id="bgGrad" x1="0%" y1="0%" x2="100%" y2="100%">
      <stop offset="0%" style="stop-color:#0f172a;stop-opacity:1"/>
      <stop offset="50%" style="stop-color:#1e293b;stop-opacity:1"/>
      <stop offset="100%" style="stop-color:#0f172a;stop-opacity:1"/>
    </linearGradient>
    <linearGradient id="accentGrad" x1="0%" y1="0%" x2="100%" y2="0%">
      <stop offset="0%" style="stop-color:#06b6d4;stop-opacity:1"/>
      <stop offset="100%" style="stop-color:#8b5cf6;stop-opacity:1"/>
    </linearGradient>
    <filter id="glow">
      <feGaussianBlur stdDeviation="2" result="coloredBlur"/>
      <feMerge>
        <feMergeNode in="coloredBlur"/>
        <feMergeNode in="SourceGraphic"/>
      </feMerge>
    </filter>
  </defs>

  <rect width="800" height="200" rx="12" fill="url(#bgGrad)"/>

  <g stroke="#1e293b" stroke-width="1">
    <line x1="0" y1="50" x2="800" y2="50"/>
    <line x1="0" y1="100" x2="800" y2="100"/>
    <line x1="0" y1="150" x2="800" y2="150"/>
    <line x1="200" y1="0" x2="200" y2="200"/>
    <line x1="400" y1="0" x2="400" y2="200"/>
    <line x1="600" y1="0" x2="600" y2="200"/>
  </g>

  <g fill="none" stroke="url(#accentGrad)" stroke-width="2" stroke-linecap="round" filter="url(#glow)">
    <path d="M 60 80 L 100 80 L 120 60 L 160 60"/>
    <path d="M 60 100 L 90 100 L 110 120 L 150 120"/>
    <path d="M 60 120 L 80 120 L 100 140 L 140 140"/>
    <circle cx="160" cy="60" r="3" fill="#06b6d4" stroke="none"/>
    <circle cx="150" cy="120" r="3" fill="#8b5cf6" stroke="none"/>
    <circle cx="140" cy="140" r="3" fill="#06b6d4" stroke="none"/>
  </g>

  <g transform="translate(520, 40)">
    <rect x="0" y="0" width="140" height="160" rx="6" fill="#1e293b" stroke="#334155" stroke-width="1.5"/>
    <rect x="0" y="0" width="140" height="28" rx="6" fill="#0f172a" stroke="#334155" stroke-width="1.5"/>
    <circle cx="16" cy="14" r="4" fill="#ef4444"/>
    <circle cx="32" cy="14" r="4" fill="#f59e0b"/>
    <circle cx="48" cy="14" r="4" fill="#22c55e"/>
    <rect x="14" y="44" width="80" height="6" rx="3" fill="#334155"/>
    <rect x="14" y="58" width="110" height="6" rx="3" fill="#334155"/>
    <rect x="14" y="72" width="60" height="6" rx="3" fill="#06b6d4" opacity="0.6"/>
    <rect x="14" y="86" width="100" height="6" rx="3" fill="#334155"/>
    <rect x="14" y="100" width="50" height="6" rx="3" fill="#8b5cf6" opacity="0.6"/>
    <rect x="14" y="114" width="90" height="6" rx="3" fill="#334155"/>
    <rect x="14" y="128" width="70" height="6" rx="3" fill="#06b6d4" opacity="0.6"/>
    <rect x="14" y="142" width="8" height="12" rx="1" fill="#06b6d4" opacity="0.8">
      <animate attributeName="opacity" values="0.8;0.2;0.8" dur="1.5s" repeatCount="indefinite"/>
    </rect>
  </g>

  <g transform="translate(690, 80)" stroke="#334155" stroke-width="2" fill="none">
    <circle cx="20" cy="20" r="14"/>
    <circle cx="20" cy="20" r="8" stroke="#06b6d4" stroke-width="1.5"/>
    <line x1="20" y1="0" x2="20" y2="6"/>
    <line x1="20" y1="34" x2="20" y2="40"/>
    <line x1="0" y1="20" x2="6" y2="20"/>
    <line x1="34" y1="20" x2="40" y2="20"/>
    <line x1="6" y1="6" x2="10" y2="10"/>
    <line x1="30" y1="30" x2="34" y2="34"/>
    <line x1="6" y1="34" x2="10" y2="30"/>
    <line x1="30" y1="10" x2="34" y2="6"/>
  </g>

  <g fill="#f1f5f9">
    <path d="M 210 95 Q 210 85 220 85 L 235 85 Q 245 85 245 95 Q 245 102 235 102 L 220 102 Q 210 102 210 110 Q 210 120 220 120 L 235 120 Q 245 120 245 110" stroke="#f1f5f9" stroke-width="4" fill="none" stroke-linecap="round"/>
    <path d="M 255 80 L 255 120 M 255 102 L 270 85 M 255 102 L 270 120" stroke="#f1f5f9" stroke-width="4" fill="none" stroke-linecap="round" stroke-linejoin="round"/>
    <circle cx="285" cy="108" r="12" stroke="#f1f5f9" stroke-width="4" fill="none"/>
    <line x1="273" y1="108" x2="297" y2="108" stroke="#0f172a" stroke-width="5"/>
    <line x1="305" y1="85" x2="305" y2="118" stroke="#f1f5f9" stroke-width="4" stroke-linecap="round"/>
    <circle cx="325" cy="108" r="12" stroke="#f1f5f9" stroke-width="4" fill="none"/>
    <path d="M 337 108 L 337 122 Q 337 132 325 132 Q 315 132 315 122" stroke="#f1f5f9" stroke-width="4" fill="none" stroke-linecap="round"/>
    <circle cx="355" cy="108" r="12" stroke="#f1f5f9" stroke-width="4" fill="none"/>
    <line x1="343" y1="108" x2="367" y2="108" stroke="#0f172a" stroke-width="5"/>
    <path d="M 375 120 L 375 96 Q 375 88 383 88 Q 391 88 391 96 L 391 120" stroke="#f1f5f9" stroke-width="4" fill="none" stroke-linecap="round" stroke-linejoin="round"/>
  </g>

  <line x1="210" y1="130" x2="395" y2="130" stroke="url(#accentGrad)" stroke-width="3" stroke-linecap="round"/>

  <g fill="#94a3b8">
    <rect x="210" y="145" width="6" height="6" rx="1" fill="#06b6d4"/>
    <rect x="220" y="145" width="170" height="6" rx="3" fill="#475569"/>
    <rect x="210" y="158" width="6" height="6" rx="1" fill="#8b5cf6"/>
    <rect x="220" y="158" width="140" height="6" rx="3" fill="#475569"/>
  </g>

  <g stroke="#334155" stroke-width="2" fill="none" stroke-linecap="round">
    <path d="M 30 170 L 30 185 L 45 185"/>
    <path d="M 770 170 L 770 185 L 755 185"/>
    <path d="M 30 30 L 30 15 L 45 15"/>
    <path d="M 770 30 L 770 15 L 755 15"/>
  </g>
</svg>
